<svg width="439" height="381" viewBox="0 0 439 381" fill="none" xmlns="http://www.w3.org/2000/svg">
<path d="M223.146 380.561C341.902 380.561 438.172 319.554 438.172 244.298C438.172 169.042 341.902 108.035 223.146 108.035C104.391 108.035 8.12036 169.042 8.12036 244.298C8.12036 319.554 104.391 380.561 223.146 380.561Z" fill="white"/>
<path d="M318.31 139.804L318.116 201.507L404.247 245.57L404.444 183.862L318.31 139.804Z" fill="#4F4FB7"/>
<path d="M318.31 139.804L341.495 127.867L427.63 171.924L404.444 183.862L318.31 139.804Z" fill="#8C8CEA"/>
<path d="M404.444 183.862L427.63 171.924L427.432 233.631L404.247 245.57L404.444 183.862Z" fill="#37377C"/>
<path d="M331.502 133.012L330.277 133.643L416.41 177.701L417.632 177.072L331.502 133.012Z" fill="#4F4FB7"/>
<path d="M416.41 239.305L417.632 238.676V177.072L416.41 177.701V239.305Z" fill="#26253A"/>
<path d="M385.472 144.3L365.349 134.006C363.995 133.314 362.769 133.254 361.88 133.708L357.583 135.922C357.576 135.925 356.135 137.047 356.133 138.408L356.101 148.338L359.584 150.193L363.912 148.004L363.932 141.257L381.134 150.065C381.902 150.46 382.529 151.419 382.525 152.2L382.495 161.985L385.975 163.767L390.303 161.541L390.334 151.758C390.342 149.021 388.161 145.675 385.472 144.3Z" fill="#37377C"/>
<path d="M185.494 293.077L188.802 290.749L188.83 285.709L182.854 279.09V291.554L185.494 293.077Z" fill="#5A4B3F"/>
<path d="M319.623 65.232L319.748 109.085L376.192 76.5L376.066 32.644L319.623 65.232Z" fill="#D3E8EF"/>
<path d="M368.373 45.166L368.384 48.632L327.438 72.272L327.431 68.806L368.373 45.166Z" fill="#80A2AF"/>
<path d="M368.373 55.802L368.384 59.269L327.438 82.909L327.431 79.441L368.373 55.802Z" fill="#80A2AF"/>
<path d="M368.373 63.6321L368.384 67.0991L327.438 90.7391L327.431 87.2721L368.373 63.6321Z" fill="#80A2AF"/>
<path d="M123.212 4.34399H123.21C123.072 4.34399 122.924 4.77499 122.774 4.71799C122.764 4.71599 122.758 4.99999 122.749 4.99599C122.645 4.95899 122.535 4.65999 122.424 4.63699C122.4 4.63099 122.378 4.34399 122.354 4.34399C122.352 4.34399 122.351 4.34399 122.348 4.34399C122.24 4.34399 121.76 4.87499 121.721 4.87499C121.633 4.87399 121.543 4.996 121.453 5.002C121.434 5.003 121.418 5.06599 121.401 5.06699C121.384 5.06699 121.366 5.09999 121.348 5.10199C121.299 5.10599 121.248 5.12499 121.197 5.13199C121.116 5.14299 121.031 5.16499 120.947 5.17999C120.924 5.18499 120.899 5.19499 120.875 5.20099C120.859 5.20499 120.841 5.20999 120.825 5.21499C120.786 5.22299 120.75 5.22999 120.712 5.23999C120.634 5.25899 120.556 5.282 120.475 5.306C120.424 5.322 120.372 5.33899 120.32 5.35799C120.308 5.36099 120.298 5.364 120.285 5.369C120.273 5.372 120.259 5.37799 120.246 5.38099C120.169 5.40799 120.092 5.43799 120.014 5.46899C119.938 5.49799 119.862 5.53099 119.785 5.56599C119.771 5.57199 119.756 5.57899 119.742 5.58599C119.729 5.59199 119.717 5.59799 119.705 5.60399C119.656 5.62699 119.606 5.65 119.554 5.675C119.477 5.713 119.399 5.75499 119.321 5.79499C119.26 5.82899 119.198 5.86199 119.139 5.89799C1.00225 74.164 6.20026 71.005 5.15126 71.777C5.02026 71.873 4.81726 72.028 4.80926 72.035C4.68626 72.134 4.71026 72.121 4.64326 72.176C4.54926 72.256 4.27426 72.497 4.26526 72.507C2.06726 74.546 0.0912588 77.88 0.00425883 80.89C-0.00974117 81.425 0.0152585 154.873 0.0152585 170.328C0.0152585 170.333 0.0152585 170.339 0.0152585 170.345C0.0152585 170.438 0.250259 170.53 0.254259 170.622C0.258259 170.713 0.379258 170.803 0.387258 170.892C0.388258 170.904 0.455258 170.999 0.457258 171.011C0.465258 171.094 0.504258 171.217 0.544258 171.442C0.546258 171.458 0.590258 171.605 0.592258 171.612C0.600258 171.652 0.629258 171.779 0.696258 172.015C0.699258 172.024 0.750258 172.164 0.752258 172.174C0.787258 172.276 0.798259 172.329 0.914259 172.581C0.915259 172.584 0.937258 172.639 0.939258 172.642C1.35526 173.516 1.73626 173.778 4.03526 175.102C4.70026 175.511 5.31826 175.847 8.05926 177.438C8.06126 177.439 8.06426 177.441 8.06426 177.441C8.06226 177.44 8.06026 177.438 8.05826 177.437C7.94426 177.371 7.83826 177.294 7.73326 177.211C7.70126 177.185 7.67126 177.157 7.64026 177.13C7.56526 177.065 7.49426 176.996 7.42526 176.923C7.39526 176.891 7.36526 176.86 7.33826 176.825C7.25826 176.733 7.18526 176.634 7.11426 176.53C7.10326 176.513 7.09126 176.499 7.08026 176.483C6.99626 176.353 6.92026 176.214 6.85126 176.066C6.84426 176.051 6.83826 176.035 6.83126 176.02C6.77326 175.89 6.71926 175.754 6.67226 175.612C6.66326 175.583 6.65326 175.556 6.64326 175.528C6.59626 175.377 6.55626 175.217 6.52126 175.051C6.51626 175.029 6.51126 175.006 6.50826 174.984C6.47426 174.812 6.44726 174.634 6.42926 174.45C6.42826 174.432 6.42726 174.413 6.42426 174.396C6.40626 174.194 6.39426 173.984 6.39426 173.766L6.14126 84.581C6.14126 84.364 6.15026 84.142 6.16726 83.92C6.33726 81.74 7.33826 79.449 8.64726 77.67C8.64826 77.668 8.64826 77.667 8.64926 77.665C8.80026 77.461 8.95626 77.261 9.11726 77.068C9.11826 77.065 9.12126 77.063 9.12226 77.061C9.29026 76.86 9.45826 76.671 9.64626 76.473C9.83126 76.275 10.0033 76.107 10.1793 75.944C10.3593 75.777 10.5433 75.616 10.7223 75.472C10.8983 75.33 11.0943 75.182 11.2773 75.055C11.3383 75.013 11.3233 75.016 11.4053 74.964C11.4283 74.95 11.4593 74.93 11.5023 74.904C11.5653 74.865 11.6573 74.81 11.7893 74.734C14.0183 73.423 27.8443 65.465 119.565 12.503C121.363 11.465 123.191 10.408 125.051 9.335C125.242 9.224 125.431 9.12699 125.618 9.03999C125.631 9.03399 125.642 9.02799 125.655 9.02299C125.839 8.93899 126.02 8.86699 126.199 8.80499C126.211 8.79999 126.222 8.796 126.234 8.793C126.405 8.736 126.572 8.68899 126.738 8.65199C126.754 8.64799 126.77 8.645 126.786 8.641C126.948 8.607 127.106 8.58299 127.262 8.56699C127.28 8.56699 127.297 8.564 127.314 8.563C127.462 8.55 127.607 8.54799 127.75 8.55499C127.779 8.55599 127.809 8.55699 127.839 8.55799C127.985 8.56699 128.129 8.584 128.268 8.612C128.292 8.617 128.314 8.62599 128.337 8.63199C128.457 8.65899 128.575 8.69199 128.686 8.73199C128.839 8.78799 128.654 8.64399 128.793 8.72499L123.212 4.34399Z" fill="#80A2AF"/>
<path d="M8.65329 77.666C8.91529 77.311 9.15829 77.024 9.12629 77.062C9.29429 76.861 9.46229 76.672 9.65029 76.474C9.83429 76.278 10.0063 76.108 10.1833 75.945C10.3623 75.779 10.5473 75.617 10.7263 75.473C10.9023 75.331 11.0983 75.183 11.2813 75.056C11.4693 74.926 11.6603 74.804 11.8553 74.692L125.055 9.33597C128.218 7.50997 130.791 8.97497 130.801 12.61L131.054 101.796C131.064 105.433 128.507 109.859 125.345 111.684L12.1433 177.042C8.97829 178.868 6.40729 177.403 6.39729 173.766L6.14429 84.581C6.14329 83.827 6.26529 83.137 6.25829 83.181C6.53429 81.447 7.34429 79.444 8.65129 77.67C8.65129 77.67 8.65229 77.668 8.65329 77.666Z" fill="#BAD3DF"/>
<path d="M123.188 19.226L123.422 101.817C123.425 102.726 122.327 104.614 121.529 105.075L14.0091 167.152L13.7751 84.569L13.7771 84.5329C14.8831 80.2899 10.9402 84.5939 123.188 19.226Z" fill="#FA7483"/>
<path d="M10.8422 180.497C10.8632 180.578 10.8832 180.659 10.9112 180.739C10.9332 180.805 10.9652 180.87 10.9942 180.936C11.0302 181.02 11.0662 181.105 11.1102 181.187C11.1732 181.302 11.2402 181.416 11.3172 181.528C11.3312 181.547 11.3442 181.565 11.3562 181.584C11.4372 181.695 11.5262 181.806 11.6222 181.915C11.6402 181.935 11.6582 181.956 11.6762 181.977C11.7802 182.09 11.8942 182.202 12.0162 182.311C12.0932 182.379 12.1792 182.447 12.2622 182.516C12.3382 182.575 12.4102 182.636 12.4892 182.694C12.5812 182.761 12.6812 182.825 12.7812 182.889C12.8822 182.955 12.9782 183.023 13.0872 183.087L90.1982 227.899C90.3722 228.002 90.5552 228.091 90.7422 228.182C90.7922 228.206 90.8412 228.23 90.8902 228.253C91.0602 228.332 91.2302 228.406 91.4072 228.473C91.4302 228.484 91.4532 228.493 91.4762 228.503C91.6652 228.572 91.8592 228.64 92.0562 228.701C92.1932 228.744 92.3332 228.784 92.4732 228.818C92.5782 228.847 92.6822 228.878 92.7882 228.904C92.9352 228.941 93.0862 228.97 93.2372 228.999C93.3392 229.02 93.4392 229.045 93.5412 229.06C93.8432 229.116 94.1502 229.156 94.4592 229.191C94.5542 229.198 94.6512 229.205 94.7462 229.214C94.9272 229.229 95.1092 229.241 95.2922 229.248C95.4062 229.254 95.5252 229.256 95.6402 229.258C95.7892 229.264 95.9372 229.264 96.0842 229.258C96.2082 229.258 96.3302 229.254 96.4542 229.25C96.5902 229.245 96.7272 229.239 96.8632 229.229C96.9892 229.219 97.1142 229.211 97.2382 229.198C97.3722 229.183 97.5072 229.17 97.6402 229.152C97.7612 229.136 97.8812 229.121 98.0012 229.101C98.1452 229.079 98.2862 229.054 98.4282 229.027C98.5402 229.006 98.6522 228.986 98.7642 228.961C98.9332 228.924 99.1002 228.882 99.2662 228.837C99.3582 228.815 99.4512 228.789 99.5422 228.764C99.8382 228.676 100.128 228.581 100.408 228.47C100.547 228.416 100.682 228.358 100.816 228.298C100.886 228.265 100.957 228.238 101.026 228.206C101.23 228.107 101.428 228.008 101.619 227.898L214.819 162.54C216.412 161.621 217.204 160.414 217.202 159.21L217.223 166.053C217.224 167.258 216.431 168.464 214.842 169.383L101.638 234.74C101.447 234.847 101.249 234.952 101.045 235.048C100.978 235.08 100.906 235.107 100.838 235.141C100.716 235.193 100.598 235.249 100.475 235.299C100.46 235.304 100.444 235.309 100.431 235.313C100.151 235.423 99.8602 235.52 99.5632 235.605C99.5392 235.612 99.5192 235.623 99.4952 235.628C99.4282 235.648 99.3552 235.662 99.2892 235.681C99.1212 235.725 98.9552 235.766 98.7862 235.803C98.7412 235.814 98.6992 235.825 98.6522 235.835C98.5862 235.85 98.5182 235.858 98.4502 235.869C98.3102 235.899 98.1682 235.924 98.0232 235.943C97.9662 235.953 97.9092 235.966 97.8532 235.975C97.7892 235.984 97.7252 235.988 97.6622 235.995C97.5282 236.013 97.3942 236.03 97.2592 236.041C97.1962 236.046 97.1322 236.058 97.0672 236.062C97.0072 236.067 96.9472 236.067 96.8862 236.072C96.7502 236.083 96.6142 236.09 96.4762 236.094C96.4082 236.096 96.3402 236.105 96.2712 236.107C96.2162 236.109 96.1622 236.105 96.1072 236.107C95.9602 236.109 95.8122 236.107 95.6642 236.105C95.5912 236.103 95.5172 236.107 95.4452 236.103C95.4012 236.103 95.3582 236.096 95.3152 236.094C95.1322 236.085 94.9512 236.072 94.7692 236.057C94.6972 236.053 94.6232 236.047 94.5492 236.042C94.5262 236.04 94.5042 236.035 94.4822 236.033C94.1722 236.001 93.8662 235.959 93.5622 235.906C93.5482 235.903 93.5332 235.903 93.5192 235.9C93.4322 235.884 93.3472 235.861 93.2612 235.841C93.1112 235.812 92.9592 235.783 92.8132 235.748C92.7052 235.722 92.6012 235.689 92.4952 235.662C92.3572 235.624 92.2162 235.586 92.0792 235.544C92.0502 235.533 92.0202 235.528 91.9902 235.518C91.8232 235.461 91.6602 235.406 91.4992 235.346C91.4752 235.334 91.4532 235.325 91.4302 235.318C91.2532 235.248 91.0822 235.173 90.9142 235.097C90.8642 235.073 90.8142 235.05 90.7662 235.024C90.5782 234.936 90.3962 234.842 90.2212 234.741L13.1112 189.929C13.0772 189.91 13.0452 189.889 13.0112 189.869C12.9372 189.825 12.8732 189.777 12.8032 189.732C12.7052 189.668 12.6042 189.603 12.5122 189.538C12.4322 189.481 12.3612 189.42 12.2862 189.358C12.2012 189.291 12.1162 189.223 12.0372 189.153C12.0222 189.139 12.0022 189.126 11.9872 189.112C11.8842 189.015 11.7882 188.918 11.6982 188.82C11.6792 188.798 11.6632 188.779 11.6442 188.756C11.5912 188.696 11.5362 188.635 11.4872 188.571C11.4482 188.524 11.4152 188.473 11.3802 188.426C11.3672 188.406 11.3532 188.39 11.3392 188.37C11.2752 188.277 11.2142 188.185 11.1622 188.091C11.1502 188.07 11.1442 188.05 11.1322 188.028C11.0882 187.946 11.0512 187.861 11.0142 187.777C10.9932 187.729 10.9652 187.679 10.9462 187.63C10.9402 187.613 10.9382 187.598 10.9322 187.582C10.9032 187.501 10.8842 187.42 10.8622 187.34C10.8492 187.286 10.8272 187.232 10.8152 187.177C10.8132 187.163 10.8142 187.147 10.8112 187.133C10.7962 187.05 10.7902 186.964 10.7822 186.879C10.7772 186.825 10.7642 186.769 10.7632 186.715C10.7622 186.69 10.7622 186.667 10.7622 186.643L10.7432 179.799C10.7432 179.879 10.7552 179.958 10.7622 180.037C10.7702 180.12 10.7762 180.206 10.7912 180.29C10.8022 180.361 10.8242 180.429 10.8422 180.497Z" fill="#80A2AF"/>
<path d="M126.325 111.114C129.489 109.289 134.6 109.288 137.744 111.114L214.852 155.926C217.995 157.752 217.981 160.714 214.817 162.54L101.617 227.898C98.4523 229.725 93.3403 229.723 90.1983 227.898L13.0873 183.086C9.94328 181.258 9.96028 178.298 13.1243 176.471L126.325 111.114Z" fill="#D3E8EF"/>
<path d="M135.723 120.523C136.029 120.342 136.532 120.337 136.838 120.513L139.464 122.006C139.772 122.18 139.772 122.472 139.466 122.652L134.487 125.589C134.181 125.769 133.677 125.774 133.372 125.599L130.745 124.107C130.438 123.931 130.438 123.641 130.743 123.461L135.723 120.523Z" fill="#BAD3DF"/>
<path d="M128.096 125.021C128.406 124.84 128.906 124.836 129.213 125.01L131.838 126.504C132.144 126.679 132.149 126.968 131.84 127.15L126.862 130.087C126.555 130.268 126.054 130.271 125.747 130.097L123.121 128.605C122.814 128.43 122.81 128.139 123.119 127.959L128.096 125.021Z" fill="#BAD3DF"/>
<path d="M120.471 129.521C120.78 129.338 121.281 129.336 121.588 129.51L124.212 131.003C124.519 131.178 124.523 131.469 124.214 131.65L119.237 134.586C118.929 134.767 118.428 134.77 118.122 134.596L115.497 133.102C115.189 132.927 115.186 132.638 115.493 132.457L120.471 129.521Z" fill="#BAD3DF"/>
<path d="M112.847 134.018C113.152 133.838 113.653 133.835 113.961 134.008L116.586 135.502C116.893 135.676 116.897 135.966 116.59 136.147L111.61 139.085C111.304 139.265 110.803 139.269 110.497 139.094L107.872 137.601C107.564 137.426 107.561 137.136 107.867 136.956L112.847 134.018Z" fill="#BAD3DF"/>
<path d="M100.803 141.123L105.221 138.516C105.527 138.337 106.029 138.332 106.335 138.506L108.961 139.999C109.268 140.174 109.27 140.465 108.964 140.646L103.987 143.582C103.679 143.764 103.178 143.767 102.871 143.592L100.246 142.099C99.9394 141.924 99.9354 141.634 100.244 141.453L100.803 141.123Z" fill="#BAD3DF"/>
<path d="M97.5952 143.015C97.9032 142.833 98.4022 142.83 98.7112 143.004L101.335 144.497C101.643 144.673 101.646 144.963 101.338 145.144L96.3612 148.081C96.0522 148.263 95.5522 148.266 95.2452 148.091L92.6192 146.597C92.3132 146.423 92.3092 146.132 92.6172 145.951L97.5952 143.015Z" fill="#BAD3DF"/>
<path d="M86.1402 149.773L89.9712 147.512C90.2772 147.332 90.7802 147.328 91.0862 147.502L93.7122 148.995C94.0202 149.171 94.0202 149.46 93.7152 149.641L88.7352 152.579C88.4292 152.76 87.9272 152.764 87.6202 152.589L84.9942 151.095C84.6872 150.921 84.6852 150.629 84.9922 150.449L86.1402 149.773Z" fill="#BAD3DF"/>
<path d="M82.3463 152.011C82.6523 151.83 83.1533 151.828 83.4593 152L86.0863 153.496C86.3933 153.67 86.3983 153.959 86.0893 154.141L81.1103 157.079C80.8023 157.26 80.3023 157.264 79.9953 157.09L77.3693 155.594C77.0613 155.42 77.0593 155.131 77.3663 154.949L82.3463 152.011Z" fill="#BAD3DF"/>
<path d="M74.7184 156.511C75.0264 156.329 75.5284 156.325 75.8344 156.5L78.4584 157.994C78.7664 158.168 78.7704 158.458 78.4614 158.639L73.4844 161.576C73.1754 161.758 72.6734 161.76 72.3684 161.586L69.7424 160.094C69.4354 159.919 69.4324 159.629 69.7404 159.448L74.7184 156.511Z" fill="#BAD3DF"/>
<path d="M67.0952 161.008C67.4002 160.828 67.9012 160.824 68.2082 161L70.8342 162.493C71.1412 162.667 71.1452 162.957 70.8382 163.138L65.8592 166.076C65.5532 166.256 65.0532 166.259 64.7462 166.085L62.1192 164.591C61.8122 164.416 61.8082 164.126 62.1152 163.946L67.0952 161.008Z" fill="#BAD3DF"/>
<path d="M57.2022 166.843L59.4672 165.508C59.7762 165.327 60.2772 165.322 60.5842 165.498L63.2082 166.99C63.5152 167.167 63.5192 167.455 63.2112 167.636L58.2332 170.572C57.9252 170.754 57.4242 170.757 57.1182 170.583L54.4942 169.091C54.1862 168.916 54.1822 168.625 54.4902 168.444L57.2022 166.843Z" fill="#BAD3DF"/>
<path d="M51.8424 170.006C52.1504 169.824 52.6524 169.822 52.9574 169.995L55.5844 171.489C55.8914 171.663 55.8944 171.953 55.5864 172.135L50.6094 175.071C50.3014 175.252 49.8004 175.257 49.4944 175.081L46.8694 173.588C46.5604 173.414 46.5574 173.125 46.8654 172.942L51.8424 170.006Z" fill="#BAD3DF"/>
<path d="M44.2184 174.503C44.5234 174.322 45.0264 174.317 45.3334 174.493L47.9594 175.987C48.2664 176.161 48.2674 176.453 47.9624 176.633L42.9844 179.569C42.6754 179.752 42.1724 179.757 41.8664 179.58L39.2404 178.088C38.9334 177.915 38.9324 177.621 39.2404 177.44L44.2184 174.503Z" fill="#BAD3DF"/>
<path d="M36.5923 179.002C36.9003 178.819 37.3993 178.815 37.7073 178.992L40.3323 180.485C40.6393 180.659 40.6433 180.949 40.3343 181.131L35.3563 184.066C35.0493 184.249 34.5483 184.252 34.2413 184.077L31.6153 182.584C31.3073 182.411 31.3053 182.12 31.6133 181.937L36.5923 179.002Z" fill="#BAD3DF"/>
<path d="M141.224 123.449C141.532 123.267 142.032 123.263 142.341 123.441L144.686 124.773L146.902 126.033C147.209 126.208 147.21 126.496 146.902 126.679L141.957 129.596C141.648 129.777 141.151 129.781 140.843 129.607L136.284 127.015C135.974 126.838 135.971 126.549 136.28 126.367L141.224 123.449Z" fill="#BAD3DF"/>
<path d="M133.836 127.807C134.143 127.626 134.645 127.622 134.954 127.799L139.514 130.39C139.821 130.565 139.822 130.855 139.514 131.036L134.569 133.954C134.262 134.135 133.763 134.14 133.456 133.966L128.895 131.373C128.587 131.196 128.582 130.907 128.891 130.724L133.836 127.807Z" fill="#BAD3DF"/>
<path d="M126.448 132.165C126.757 131.983 127.257 131.98 127.566 132.156L132.127 134.748C132.433 134.922 132.435 135.211 132.127 135.393L127.181 138.31C126.873 138.493 126.376 138.498 126.069 138.323L121.51 135.729C121.201 135.552 121.197 135.263 121.505 135.081L126.448 132.165Z" fill="#BAD3DF"/>
<path d="M119.061 136.523C119.368 136.342 119.869 136.338 120.179 136.515L124.739 139.107C125.046 139.283 125.046 139.571 124.739 139.752L119.794 142.669C119.487 142.852 118.988 142.857 118.68 142.683L114.12 140.088C113.81 139.912 113.807 139.622 114.116 139.442L119.061 136.523Z" fill="#BAD3DF"/>
<path d="M111.675 140.88C111.981 140.699 112.483 140.695 112.791 140.872L117.351 143.466C117.656 143.64 117.659 143.928 117.352 144.108L112.405 147.027C112.096 147.208 111.599 147.213 111.292 147.039L106.732 144.445C106.422 144.27 106.419 143.979 106.727 143.798L111.675 140.88Z" fill="#BAD3DF"/>
<path d="M104.285 145.239C104.592 145.059 105.093 145.054 105.402 145.23L109.964 147.824C110.271 147.999 110.271 148.287 109.964 148.469L105.019 151.385C104.71 151.567 104.211 151.571 103.904 151.397L99.3443 148.805C99.0363 148.629 99.0313 148.339 99.3413 148.157L104.285 145.239Z" fill="#BAD3DF"/>
<path d="M96.8984 149.597C97.2054 149.415 97.7074 149.411 98.0184 149.587L102.578 152.181C102.885 152.354 102.883 152.644 102.575 152.827L97.6304 155.745C97.3264 155.925 96.8244 155.931 96.5174 155.756L91.9574 153.162C91.6484 152.987 91.6454 152.695 91.9524 152.515L96.8984 149.597Z" fill="#BAD3DF"/>
<path d="M89.5112 153.955C89.8172 153.775 90.3202 153.77 90.6292 153.945L95.1902 156.538C95.4972 156.712 95.4962 157.001 95.1902 157.183L90.2422 160.101C89.9362 160.281 89.4352 160.287 89.1282 160.113L84.5692 157.52C84.2582 157.345 84.2572 157.053 84.5642 156.872L89.5112 153.955Z" fill="#BAD3DF"/>
<path d="M82.1244 158.312C82.4304 158.132 82.9334 158.127 83.2424 158.303L87.8014 160.896C88.1094 161.071 88.1074 161.362 87.8004 161.541L82.8544 164.459C82.5484 164.639 82.0474 164.645 81.7404 164.471L77.1814 161.878C76.8704 161.701 76.8694 161.411 77.1754 161.229L82.1244 158.312Z" fill="#BAD3DF"/>
<path d="M74.7364 162.669C75.0424 162.49 75.5454 162.485 75.8554 162.661L80.4154 165.254C80.7214 165.428 80.7204 165.719 80.4154 165.899L75.4684 168.817C75.1624 168.997 74.6614 169.003 74.3544 168.828L69.7944 166.236C69.4844 166.059 69.4844 165.769 69.7914 165.589L74.7364 162.669Z" fill="#BAD3DF"/>
<path d="M67.3492 167.028C67.6532 166.847 68.1572 166.843 68.4672 167.019L73.0272 169.613C73.3342 169.789 73.3332 170.078 73.0262 170.258L68.0792 173.176C67.7742 173.356 67.2722 173.363 66.9662 173.189L62.4062 170.595C62.0962 170.42 62.0962 170.128 62.4012 169.947L67.3492 167.028Z" fill="#BAD3DF"/>
<path d="M59.9604 171.388C60.2654 171.207 60.7694 171.203 61.0794 171.377L65.6384 173.97C65.9474 174.145 65.9454 174.434 65.6394 174.615L60.6934 177.533C60.3854 177.715 59.8854 177.721 59.5794 177.547L55.0194 174.953C54.7104 174.778 54.7084 174.487 55.0174 174.305L59.9604 171.388Z" fill="#BAD3DF"/>
<path d="M52.5732 175.745C52.8812 175.563 53.3822 175.559 53.6922 175.735L58.2512 178.327C58.5582 178.503 58.5612 178.79 58.2502 178.973L53.3072 181.89C52.9982 182.071 52.4972 182.076 52.1912 181.902L47.6312 179.309C47.3212 179.133 47.3192 178.842 47.6272 178.661L52.5732 175.745Z" fill="#BAD3DF"/>
<path d="M137.67 133.957C137.974 133.776 138.479 133.771 138.788 133.949L143.346 136.541C143.654 136.717 143.652 137.006 143.347 137.186L138.402 140.103C138.093 140.286 137.593 140.291 137.287 140.116L132.727 137.523C132.418 137.348 132.416 137.056 132.725 136.875L137.67 133.957Z" fill="#BAD3DF"/>
<path d="M130.28 138.314C130.587 138.135 131.09 138.13 131.399 138.306L135.959 140.897C136.266 141.074 136.265 141.363 135.959 141.543L131.012 144.461C130.705 144.642 130.206 144.648 129.898 144.474L125.339 141.881C125.029 141.705 125.028 141.414 125.334 141.233L130.28 138.314Z" fill="#BAD3DF"/>
<path d="M122.894 142.673C123.201 142.492 123.702 142.488 124.012 142.665L128.571 145.256C128.878 145.432 128.879 145.719 128.571 145.901L123.624 148.82C123.318 149 122.819 149.006 122.51 148.832L117.952 146.24C117.642 146.064 117.641 145.772 117.947 145.591L122.894 142.673Z" fill="#BAD3DF"/>
<path d="M115.506 147.032C115.814 146.85 116.314 146.846 116.624 147.023L121.184 149.616C121.491 149.791 121.493 150.078 121.184 150.261L116.239 153.179C115.931 153.361 115.431 153.367 115.123 153.192L110.563 150.599C110.254 150.422 110.253 150.131 110.561 149.949L115.506 147.032Z" fill="#BAD3DF"/>
<path d="M108.118 151.39C108.426 151.206 108.926 151.204 109.237 151.379L113.794 153.974C114.103 154.148 114.104 154.436 113.795 154.617L108.85 157.535C108.542 157.717 108.043 157.721 107.737 157.547L103.176 154.954C102.867 154.778 102.864 154.488 103.173 154.307L108.118 151.39Z" fill="#BAD3DF"/>
<path d="M100.729 155.747C101.038 155.565 101.538 155.563 101.848 155.738L106.408 158.331C106.716 158.506 106.717 158.795 106.408 158.976L101.462 161.893C101.154 162.074 100.656 162.079 100.35 161.905L95.7913 159.313C95.4803 159.136 95.4773 158.845 95.7873 158.665L100.729 155.747Z" fill="#BAD3DF"/>
<path d="M93.3432 160.105C93.6512 159.924 94.1522 159.921 94.4612 160.096L99.0212 162.689C99.3282 162.863 99.3302 163.152 99.0212 163.334L94.0772 166.251C93.7672 166.432 93.2702 166.437 92.9632 166.263L88.4032 163.67C88.0932 163.494 88.0892 163.203 88.3972 163.022L93.3432 160.105Z" fill="#BAD3DF"/>
<path d="M85.9544 164.464C86.2624 164.283 86.7644 164.28 87.0724 164.455L91.6324 167.048C91.9404 167.222 91.9414 167.511 91.6324 167.693L86.6874 170.611C86.3794 170.793 85.8814 170.798 85.5754 170.622L81.0154 168.03C80.7054 167.854 80.7024 167.563 81.0114 167.382L85.9544 164.464Z" fill="#BAD3DF"/>
<path d="M78.5702 168.821C78.8762 168.64 79.3752 168.637 79.6852 168.813L84.2452 171.407C84.5532 171.582 84.5522 171.869 84.2472 172.05L79.2992 174.969C78.9922 175.15 78.4942 175.154 78.1872 174.98L73.6262 172.387C73.3172 172.21 73.3132 171.921 73.6212 171.74L78.5702 168.821Z" fill="#BAD3DF"/>
<path d="M71.1823 173.179C71.4873 172.998 71.9883 172.994 72.2973 173.171L76.8573 175.765C77.1653 175.94 77.1663 176.228 76.8593 176.408L71.9123 179.326C71.6053 179.508 71.1063 179.513 70.7993 179.337L66.2393 176.745C65.9303 176.569 65.9263 176.28 66.2343 176.098L71.1823 173.179Z" fill="#BAD3DF"/>
<path d="M63.7933 177.537C64.1003 177.355 64.6033 177.35 64.9123 177.528L69.4723 180.12C69.7783 180.295 69.7763 180.585 69.4713 180.766L64.5253 183.684C64.2193 183.864 63.7183 183.871 63.4113 183.697L58.8513 181.103C58.5423 180.927 58.5403 180.636 58.8463 180.457L63.7933 177.537Z" fill="#BAD3DF"/>
<path d="M56.4073 181.896C56.7123 181.714 57.2163 181.71 57.5253 181.887L62.0843 184.48C62.3903 184.652 62.3903 184.942 62.0843 185.123L57.1373 188.044C56.8313 188.224 56.3313 188.229 56.0253 188.054L51.4653 185.461C51.1553 185.285 51.1533 184.992 51.4603 184.813L56.4073 181.896Z" fill="#BAD3DF"/>
<path d="M143.01 139.22C143.316 139.04 143.817 139.034 144.127 139.21L148.687 141.803C148.994 141.977 148.992 142.265 148.686 142.448L143.738 145.366C143.43 145.547 142.932 145.552 142.624 145.377L138.064 142.784C137.755 142.607 137.754 142.319 138.062 142.136L143.01 139.22Z" fill="#BAD3DF"/>
<path d="M135.622 143.578C135.929 143.398 136.427 143.392 136.738 143.567L141.298 146.162C141.605 146.336 141.604 146.626 141.298 146.807L136.351 149.724C136.042 149.905 135.544 149.91 135.237 149.736L130.678 147.144C130.369 146.968 130.367 146.679 130.675 146.498L135.622 143.578Z" fill="#BAD3DF"/>
<path d="M128.235 147.936C128.541 147.755 129.042 147.75 129.351 147.925L133.911 150.519C134.218 150.694 134.216 150.985 133.91 151.164L128.961 154.082C128.653 154.263 128.156 154.268 127.849 154.092L123.289 151.501C122.979 151.326 122.978 151.036 123.287 150.855L128.235 147.936Z" fill="#BAD3DF"/>
<path d="M120.848 152.294C121.153 152.114 121.653 152.108 121.964 152.284L126.523 154.878C126.83 155.052 126.829 155.342 126.523 155.523L121.576 158.441C121.269 158.622 120.77 158.628 120.462 158.453L115.903 155.859C115.593 155.684 115.596 155.393 115.9 155.213L120.848 152.294Z" fill="#BAD3DF"/>
<path d="M113.458 156.652C113.766 156.473 114.266 156.467 114.575 156.642L119.135 159.236C119.442 159.41 119.44 159.7 119.135 159.881L114.187 162.801C113.883 162.981 113.382 162.987 113.074 162.812L108.515 160.219C108.204 160.044 108.206 159.753 108.512 159.573L113.458 156.652Z" fill="#BAD3DF"/>
<path d="M106.072 161.01C106.378 160.831 106.878 160.824 107.188 161L111.747 163.593C112.054 163.769 112.054 164.058 111.748 164.239L106.8 167.158C106.494 167.339 105.994 167.344 105.688 167.17L101.127 164.576C100.818 164.401 100.819 164.11 101.124 163.931L106.072 161.01Z" fill="#BAD3DF"/>
<path d="M98.6832 165.37C98.9922 165.188 99.4902 165.184 99.8012 165.359L104.36 167.951C104.667 168.127 104.669 168.415 104.359 168.598L99.4132 171.515C99.1062 171.695 98.6052 171.701 98.2982 171.526L93.7382 168.935C93.4292 168.757 93.4302 168.468 93.7362 168.287L98.6832 165.37Z" fill="#BAD3DF"/>
<path d="M91.2964 169.727C91.6044 169.546 92.1034 169.541 92.4134 169.717L96.9714 172.31C97.2784 172.484 97.2804 172.772 96.9714 172.956L92.0274 175.871C91.7204 176.053 91.2194 176.058 90.9124 175.884L86.3514 173.293C86.0404 173.116 86.0444 172.827 86.3514 172.644L91.2964 169.727Z" fill="#BAD3DF"/>
<path d="M83.9084 174.085C84.2174 173.904 84.7164 173.899 85.0244 174.075L89.5844 176.669C89.8914 176.843 89.8924 177.131 89.5844 177.313L84.6414 180.23C84.3314 180.413 83.8344 180.418 83.5264 180.242L78.9674 177.65C78.6574 177.473 78.6564 177.185 78.9644 177.004L83.9084 174.085Z" fill="#BAD3DF"/>
<path d="M76.5213 178.443C76.8293 178.263 77.3283 178.258 77.6373 178.433L82.1973 181.027C82.5033 181.2 82.5053 181.489 82.1973 181.672L77.2523 184.59C76.9443 184.771 76.4463 184.776 76.1403 184.6L71.5803 182.008C71.2713 181.832 71.2713 181.543 71.5773 181.363L76.5213 178.443Z" fill="#BAD3DF"/>
<path d="M69.1323 182.8C69.4413 182.619 69.9393 182.614 70.2503 182.789L74.8083 185.383C75.1163 185.558 75.1173 185.846 74.8083 186.028L69.8633 188.944C69.5553 189.127 69.0573 189.131 68.7503 188.956L64.1903 186.362C63.8803 186.187 63.8793 185.898 64.1873 185.716L69.1323 182.8Z" fill="#BAD3DF"/>
<path d="M146.852 145.365C147.157 145.185 147.656 145.18 147.964 145.356L152.525 147.949C152.832 148.124 152.835 148.414 152.529 148.594L147.582 151.512C147.274 151.695 146.773 151.698 146.467 151.523L141.906 148.929C141.597 148.754 141.595 148.465 141.903 148.284L146.852 145.365Z" fill="#BAD3DF"/>
<path d="M139.464 149.724C139.771 149.545 140.269 149.538 140.579 149.713L145.138 152.306C145.446 152.481 145.447 152.772 145.141 152.953L140.193 155.872C139.887 156.052 139.384 156.057 139.077 155.883L134.518 153.289C134.209 153.114 134.21 152.823 134.516 152.643L139.464 149.724Z" fill="#BAD3DF"/>
<path d="M132.076 154.081C132.382 153.902 132.882 153.895 133.191 154.071L137.752 156.664C138.059 156.838 138.059 157.13 137.754 157.31L132.806 160.229C132.5 160.409 131.996 160.414 131.69 160.239L127.129 157.646C126.82 157.47 126.821 157.18 127.127 156.999L132.076 154.081Z" fill="#BAD3DF"/>
<path d="M124.688 158.44C124.993 158.26 125.494 158.253 125.805 158.43L130.365 161.022C130.671 161.198 130.673 161.488 130.366 161.669L125.42 164.588C125.113 164.768 124.609 164.773 124.303 164.598L119.744 162.005C119.434 161.828 119.435 161.538 119.742 161.358L124.688 158.44Z" fill="#BAD3DF"/>
<path d="M117.3 162.8C117.61 162.616 118.107 162.612 118.416 162.79L122.976 165.382C123.283 165.556 123.287 165.845 122.979 166.029L118.031 168.946C117.725 169.126 117.221 169.132 116.915 168.957L112.356 166.365C112.046 166.189 112.047 165.899 112.353 165.718L117.3 162.8Z" fill="#BAD3DF"/>
<path d="M109.912 167.157C110.22 166.974 110.717 166.969 111.028 167.146L115.588 169.738C115.894 169.914 115.898 170.203 115.59 170.386L110.644 173.302C110.338 173.484 109.832 173.488 109.527 173.314L104.966 170.722C104.657 170.545 104.658 170.256 104.966 170.073L109.912 167.157Z" fill="#BAD3DF"/>
<path d="M102.524 171.514C102.833 171.332 103.33 171.328 103.642 171.503L108.201 174.097C108.508 174.271 108.511 174.561 108.202 174.743L103.257 177.66C102.949 177.843 102.449 177.844 102.141 177.671L97.5814 175.078C97.2714 174.902 97.2714 174.614 97.5794 174.431L102.524 171.514Z" fill="#BAD3DF"/>
<path d="M95.1372 175.872C95.4452 175.691 95.9442 175.685 96.2532 175.862L100.813 178.455C101.12 178.63 101.124 178.919 100.814 179.101L95.8712 182.018C95.5622 182.201 95.0612 182.204 94.7542 182.028L90.1942 179.436C89.8842 179.259 89.8832 178.971 90.1912 178.788L95.1372 175.872Z" fill="#BAD3DF"/>
<path d="M87.7492 180.231C88.0592 180.05 88.5562 180.046 88.8642 180.22L93.4252 182.812C93.7322 182.988 93.7362 183.279 93.4282 183.459L88.4822 186.378C88.1732 186.559 87.6732 186.562 87.3662 186.388L82.8072 183.796C82.4982 183.618 82.4962 183.329 82.8052 183.148L87.7492 180.231Z" fill="#BAD3DF"/>
<path d="M80.3643 184.588C80.6703 184.408 81.1693 184.402 81.4783 184.579L86.0383 187.171C86.3443 187.345 86.3483 187.636 86.0433 187.817L81.0963 190.734C80.7873 190.916 80.2863 190.92 79.9793 190.744L75.4203 188.153C75.1103 187.977 75.1083 187.689 75.4163 187.506L80.3643 184.588Z" fill="#BAD3DF"/>
<path d="M155.706 131.73C156.011 131.55 156.512 131.544 156.821 131.72L161.382 134.313C161.689 134.488 161.687 134.779 161.382 134.958L150.783 141.211C150.474 141.393 149.978 141.399 149.67 141.222L145.109 138.629C144.8 138.453 144.799 138.166 145.108 137.982L155.706 131.73Z" fill="#BAD3DF"/>
<path d="M62.0624 186.973C62.3684 186.792 62.8654 186.787 63.1744 186.965L67.7344 189.556C68.0424 189.731 68.0444 190.019 67.7364 190.201L57.1374 196.452C56.8304 196.635 56.3324 196.639 56.0254 196.463L53.6404 195.106L51.4654 193.871C51.1574 193.694 51.1544 193.405 51.4644 193.225L62.0624 186.973Z" fill="#BAD3DF"/>
<path d="M148.378 127.64C148.685 127.458 149.188 127.453 149.496 127.63L154.057 130.223C154.364 130.397 154.363 130.687 154.056 130.867L145.427 135.959C145.119 136.141 144.62 136.146 144.314 135.972L139.755 133.378C139.444 133.201 139.441 132.912 139.749 132.731L148.378 127.64Z" fill="#BAD3DF"/>
<path d="M45.5712 179.876C45.8762 179.696 46.3762 179.692 46.6862 179.869L51.2472 182.462C51.5542 182.637 51.5542 182.925 51.2502 183.105L42.6192 188.196C42.3112 188.379 41.8122 188.384 41.5062 188.208L40.3022 187.523L36.9462 185.617C36.6352 185.441 36.6332 185.149 36.9402 184.968L45.5712 179.876Z" fill="#BAD3DF"/>
<path d="M72.8784 189.005C73.1864 188.822 73.6854 188.817 73.9934 188.995L78.5544 191.587C78.8614 191.762 78.8634 192.049 78.5564 192.233L64.4014 200.584C64.0934 200.766 63.5934 200.769 63.2864 200.593L58.7264 197.999C58.4174 197.824 58.4154 197.535 58.7244 197.353L72.8784 189.005Z" fill="#BAD3DF"/>
<path d="M162.966 135.86C163.274 135.679 163.773 135.672 164.082 135.85L168.642 138.443C168.949 138.618 168.952 138.909 168.646 139.089L154.49 147.439C154.182 147.621 153.68 147.626 153.371 147.451L148.812 144.857C148.501 144.682 148.504 144.391 148.812 144.21L162.966 135.86Z" fill="#BAD3DF"/>
<path d="M170.136 139.938C170.441 139.757 170.942 139.752 171.25 139.927L177.047 143.222C177.353 143.397 177.356 143.687 177.052 143.868L168.42 148.959C168.116 149.139 167.611 149.144 167.304 148.97L161.508 145.673C161.2 145.497 161.199 145.207 161.506 145.027L170.136 139.938Z" fill="#BAD3DF"/>
<path d="M150.053 151.785C150.358 151.604 150.86 151.597 151.169 151.774L156.963 155.068C157.271 155.244 157.273 155.535 156.966 155.715L151.845 158.735L148.338 160.804C148.029 160.986 147.526 160.991 147.22 160.815L141.425 157.52C141.115 157.344 141.118 157.054 141.425 156.872L150.053 151.785Z" fill="#BAD3DF"/>
<path d="M139.04 158.282C139.348 158.1 139.845 158.096 140.156 158.271L145.951 161.567C146.258 161.742 146.262 162.032 145.953 162.214L143.633 163.582L104.1 186.903C103.794 187.085 103.29 187.091 102.984 186.914L97.1894 183.618C96.8804 183.444 96.8814 183.152 97.1874 182.972L139.04 158.282Z" fill="#BAD3DF"/>
<path d="M159.306 146.324C159.616 146.144 160.112 146.139 160.424 146.314L166.217 149.61C166.526 149.786 166.529 150.074 166.219 150.257L165.771 150.522L159.222 154.384C158.916 154.564 158.413 154.569 158.107 154.395L152.312 151.099C152.003 150.924 152.004 150.635 152.309 150.453L159.306 146.324Z" fill="#BAD3DF"/>
<path d="M74.5213 196.342C74.8293 196.162 75.3273 196.157 75.6373 196.332L81.4313 199.626C81.7393 199.801 81.7413 200.09 81.4333 200.272L72.8073 205.363C72.4983 205.545 71.9973 205.551 71.6913 205.373L65.8963 202.08C65.5873 201.906 65.5843 201.613 65.8933 201.434L74.5213 196.342Z" fill="#BAD3DF"/>
<path d="M94.9062 184.318C95.2132 184.137 95.7122 184.132 96.0212 184.307L101.814 187.601C102.123 187.777 102.125 188.065 101.817 188.247L97.7722 190.633L93.1902 193.339C92.8842 193.519 92.3812 193.523 92.0742 193.349L86.2802 190.051C85.9712 189.874 85.9712 189.586 86.2772 189.405L94.9062 184.318Z" fill="#BAD3DF"/>
<path d="M84.0213 190.736C84.3273 190.558 84.8283 190.552 85.1373 190.726L90.9323 194.024C91.2393 194.199 91.2403 194.488 90.9333 194.668L83.9363 198.796C83.6293 198.978 83.1283 198.981 82.8213 198.807L77.0253 195.513C76.7163 195.335 76.7153 195.049 77.0233 194.866L84.0213 190.736Z" fill="#BAD3DF"/>
<path d="M49.1452 186.177C49.4542 185.996 49.9542 185.993 50.2622 186.17L54.8222 188.762C55.1292 188.937 55.1312 189.225 54.8232 189.407L49.8782 192.326C49.5702 192.508 49.0722 192.512 48.7652 192.338L44.2052 189.743C43.8952 189.567 43.8922 189.278 44.2002 189.096L49.1452 186.177Z" fill="#BAD3DF"/>
<path d="M142.001 169.128C143.028 168.523 144.693 168.507 145.725 169.092L164.41 179.72C165.441 180.306 165.444 181.27 164.418 181.875L151.215 189.666L138.011 197.454C136.985 198.059 135.32 198.075 134.29 197.489L124.946 192.175L115.603 186.863C114.573 186.277 114.569 185.31 115.594 184.705L142.001 169.128Z" fill="#BAD3DF"/>
<path d="M31.1802 85.513L31.3502 145.274L108.268 100.867L108.097 41.103L31.1802 85.513Z" fill="white"/>
<path d="M108.146 57.701L45.9862 93.189L45.7312 77.112L108.097 41.103L108.146 57.701Z" fill="#FBD24F"/>
<path d="M100.557 70.75L100.572 75.474L44.7732 107.69L44.7632 102.966L100.557 70.75Z" fill="#80A2AF"/>
<path d="M100.557 85.245L100.572 89.969L44.7732 122.185L44.7632 117.459L100.557 85.245Z" fill="#80A2AF"/>
<path d="M100.557 95.915L100.572 100.639L44.7732 132.855L44.7632 128.131L100.557 95.915Z" fill="#80A2AF"/>
<path d="M216.53 54.865L216.624 84.48L187.538 99.359L187.443 69.744L216.53 54.865Z" fill="#FBB82C"/>
<path d="M216.411 18.1949L216.509 47.8079L187.42 62.687L187.324 33.074L216.411 18.1949Z" fill="#37377C"/>
<path d="M251.98 0L252.075 29.614L222.992 44.492L222.894 14.879L251.98 0Z" fill="#FBB82C"/>
<path d="M252.099 36.6689L252.195 66.283L223.106 81.164L223.013 51.549L252.099 36.6689Z" fill="#8C8CEA"/>
<path d="M216.647 91.536L216.74 121.149L187.655 136.029L187.559 106.416L216.647 91.536Z" fill="#80A2AF"/>
<path d="M252.217 73.343L252.312 102.956L223.225 117.835L223.129 88.22L252.217 73.343Z" fill="#FA7483"/>
<path d="M174.627 16.568L175.297 105.551L86.3882 154.837V63.478L174.627 16.568Z" fill="#8C8CEA"/>
<path d="M159.364 97.534L152.05 101.377L151.958 76.1709L164.621 69.8889L152.015 60.657V60.532L151.86 60.5849L134.603 48.0229L101.203 101.334L115.015 94.312V120.554L109.91 123.377L110.182 134.596L119.449 129.83L125.015 127.194V127.057L160.017 108.03L159.364 97.534ZM143.015 106.108L138.675 108.396L138.608 82.8109L143.015 80.6109V106.108ZM124.391 89.959L130.015 87.207V113.063L124.467 115.951L124.391 89.959Z" fill="#4F4FB7"/>
<path d="M196.39 223.787C196.39 229.333 186.273 233.83 173.792 233.83C161.311 233.83 151.192 229.333 151.192 223.787C151.192 218.243 161.31 213.746 173.792 213.746C186.273 213.746 196.39 218.243 196.39 223.787Z" fill="#CAE4F1"/>
<path d="M158.882 149.511L139.22 138.083L153.805 129.662L173.47 141.091L158.882 149.511Z" fill="#8C8CEA"/>
<path d="M158.89 151.477L139.225 140.05L139.22 138.083L158.882 149.511L158.89 151.477Z" fill="#4F4FB7"/>
<path d="M158.89 151.477L158.882 149.511L173.47 141.091L173.473 143.057L158.89 151.477Z" fill="#BAD3DF"/>
<path d="M154.846 132.475C154.872 132.462 154.903 132.471 154.917 132.495C154.933 132.518 154.921 132.55 154.899 132.565L143.801 138.971C143.792 138.976 143.784 138.979 143.774 138.979C143.757 138.979 143.74 138.968 143.73 138.954C143.716 138.927 143.723 138.897 143.75 138.883L154.846 132.475Z" fill="white"/>
<path d="M156.131 133.221C156.153 133.207 156.185 133.214 156.199 133.24C156.214 133.266 156.206 133.297 156.181 133.312L145.083 139.719C145.075 139.723 145.067 139.725 145.057 139.725C145.041 139.725 145.023 139.715 145.013 139.699C144.999 139.674 145.007 139.643 145.031 139.63L156.131 133.221Z" fill="white"/>
<path d="M158.697 134.714C158.723 134.699 158.752 134.708 158.766 134.734C158.781 134.757 158.773 134.788 158.75 134.803L147.65 141.211C147.644 141.214 147.636 141.216 147.626 141.216C147.608 141.216 147.59 141.205 147.582 141.191C147.566 141.168 147.577 141.135 147.602 141.121L158.697 134.714Z" fill="white"/>
<path d="M159.981 135.459C160.003 135.446 160.034 135.454 160.049 135.478C160.064 135.501 160.055 135.535 160.029 135.549L148.934 141.955C148.924 141.961 148.918 141.963 148.908 141.963C148.89 141.963 148.872 141.954 148.864 141.938C148.85 141.911 148.857 141.88 148.882 141.868L159.981 135.459Z" fill="white"/>
<path d="M162.548 136.952C162.572 136.937 162.604 136.946 162.617 136.97C162.632 136.994 162.623 137.026 162.6 137.038L151.5 143.445C151.494 143.452 151.485 143.454 151.476 143.454C151.458 143.454 151.441 143.443 151.43 143.429C151.417 143.403 151.424 143.373 151.45 143.358L162.548 136.952Z" fill="white"/>
<path d="M163.83 137.696C163.854 137.681 163.886 137.692 163.9 137.716C163.914 137.74 163.906 137.772 163.882 137.785L152.783 144.193C152.777 144.196 152.767 144.198 152.759 144.198C152.741 144.198 152.725 144.189 152.713 144.174C152.701 144.15 152.708 144.118 152.733 144.103L163.83 137.696Z" fill="white"/>
<path d="M165.113 138.442C165.139 138.428 165.169 138.438 165.185 138.461C165.197 138.485 165.191 138.517 165.165 138.53L154.066 144.938C154.058 144.943 154.05 144.945 154.041 144.945C154.024 144.945 154.008 144.936 153.996 144.92C153.983 144.896 153.993 144.864 154.017 144.851L165.113 138.442Z" fill="white"/>
<path d="M167.68 139.935C167.704 139.92 167.736 139.927 167.75 139.953C167.764 139.977 167.757 140.009 167.73 140.023L156.635 146.43C156.627 146.434 156.617 146.435 156.609 146.435C156.591 146.435 156.575 146.427 156.565 146.41C156.551 146.386 156.559 146.355 156.583 146.339L167.68 139.935Z" fill="white"/>
<path d="M168.965 140.68C168.989 140.666 169.021 140.675 169.035 140.698C169.047 140.723 169.041 140.755 169.014 140.77L157.916 147.176C157.908 147.181 157.899 147.183 157.891 147.183C157.876 147.183 157.856 147.175 157.847 147.159C157.833 147.133 157.841 147.102 157.864 147.088L168.965 140.68Z" fill="white"/>
<path d="M163.254 217.85L162.769 218.173C162.769 218.173 161.638 218.334 160.346 218.012C159.051 217.689 157.597 217.77 157.838 218.981C158.085 220.194 160.183 221.165 161.072 221.569C161.961 221.972 163.741 222.539 163.982 222.863C164.226 223.186 164.628 223.67 166.003 223.346C167.377 223.023 167.439 222.456 167.439 222.456V217.445L163.254 217.85Z" fill="#26253A"/>
<path d="M183.815 223.518L183.331 223.842C183.331 223.842 182.199 224.001 180.907 223.679C179.612 223.357 178.159 223.437 178.401 224.65C178.644 225.861 180.744 226.832 181.633 227.238C182.523 227.639 184.302 228.208 184.543 228.53C184.786 228.852 185.191 229.338 186.564 229.015C187.939 228.691 188.001 228.124 188.001 228.124V223.112L183.815 223.518Z" fill="#26253A"/>
<path d="M188.04 206.75C187.933 201.814 186.581 198.147 186.581 198.147C186.581 198.147 186.834 179.194 187.383 174.401C187.933 169.608 186.414 166.482 186.013 165.03C185.796 160.21 178.491 164.094 178.491 164.094L169.56 167.251L169.042 166.956C169.042 166.956 168.906 167.19 168.693 167.558L167.67 167.919L167.594 169.486C167.589 169.495 167.868 169.505 167.861 169.514L168.016 169.502C168.016 169.502 168.016 169.59 168.016 169.746C167.016 171.15 166.112 172.692 165.857 173.356C163.83 178.609 157.609 194.367 157.609 194.367L162.231 219.039C162.231 219.039 166.598 219.015 167.696 218.761C168.794 218.506 165.21 197.196 165.21 197.196L175.15 184.93C176.88 192.858 179.388 204.348 179.798 206.119C180.883 210.804 182.281 221.809 182.715 225.354C182.715 225.354 183.679 226.118 185.306 226.118C186.934 226.118 186.969 225.549 188.054 224.031C188.054 224.031 188.15 211.688 188.04 206.75Z" fill="#4F4FB7"/>
<path d="M155.179 151.201C155.179 151.201 153.763 150.936 152.979 150.617C152.191 150.299 150.866 149.079 150.718 148.598C150.571 148.121 150.376 146.156 150.718 145.73C151.063 145.304 152.336 146.793 152.854 147.271C153.371 147.749 153.371 147.749 153.371 147.749C153.371 147.749 152.979 146.475 153.076 146.156C153.175 145.837 153.763 145.782 154.45 146.58C155.138 147.377 156.955 149.129 156.955 149.129L155.179 151.201Z" fill="#FA7483"/>
<path d="M168.16 121.054C168.16 121.054 167.531 124.243 167.883 126.192C168.036 127.036 169.036 128.911 170.123 129.345C171.205 129.779 173.293 128.911 173.293 128.911L173.063 136.092C173.063 136.092 176.211 136.743 178.708 134.898V132.403V125.041C178.708 125.041 174.379 117.768 168.16 121.054Z" fill="#FA7483"/>
<path d="M172.825 135.529C172.825 135.529 169.352 136.832 167.288 138.785C165.228 140.739 165.445 144.43 165.228 147.361C165.011 150.289 164.576 152.244 164.576 152.244C164.576 152.244 156.084 147.685 155.432 147.468C155.432 147.468 152.812 147.728 153.681 151.201C153.681 151.201 159.908 155.934 162.297 157.561C164.684 159.19 166.855 160.599 168.375 160.599L167.209 168.938C167.209 168.938 173.144 170.446 176.619 170.123C180.092 169.797 184.148 167.397 185.776 164.467C185.776 164.467 185.712 151.414 186.583 148.375C187.45 145.337 187.26 136.939 186.392 134.986C185.523 133.033 182.05 131.188 178.47 132.925L172.825 135.529Z" fill="#FBD24F"/>
<path d="M168.16 121.054C168.16 121.054 165.465 119.408 168.899 116.783C174.498 112.498 176.062 114.904 178.708 116.085C180.603 116.933 182.071 120.211 181.854 123.901C181.637 127.591 178.374 128.593 178.374 128.593C178.374 128.593 177.013 128.538 174.515 125.933C172.019 123.326 174.073 122.535 173.473 121.465C172.875 120.391 168.16 121.054 168.16 121.054Z" fill="#FBB82C"/>
<path d="M230.618 192.039C230.628 192.22 230.639 192.397 230.658 192.576C230.673 192.736 230.695 192.889 230.716 193.045C230.742 193.224 230.767 193.401 230.8 193.579C230.813 193.644 230.818 193.706 230.832 193.771C230.848 193.863 230.875 193.957 230.897 194.05C230.937 194.224 230.976 194.398 231.027 194.571C231.066 194.727 231.113 194.884 231.162 195.04C231.215 195.212 231.272 195.384 231.333 195.554C231.358 195.63 231.376 195.7 231.405 195.775C231.435 195.856 231.472 195.932 231.508 196.015C231.579 196.197 231.653 196.378 231.736 196.557C231.801 196.707 231.871 196.854 231.945 197.006C232.03 197.184 232.126 197.363 232.221 197.539C232.266 197.626 232.306 197.715 232.354 197.798C232.386 197.857 232.427 197.913 232.462 197.972C232.584 198.185 232.718 198.392 232.851 198.602C232.931 198.733 233.012 198.858 233.101 198.985C233.257 199.217 233.43 199.445 233.604 199.676C233.664 199.759 233.722 199.845 233.788 199.928C233.801 199.941 233.814 199.958 233.828 199.974C234.114 200.338 234.424 200.697 234.75 201.05C234.834 201.146 234.925 201.232 235.013 201.325C235.271 201.595 235.537 201.862 235.821 202.124C235.881 202.187 235.933 202.246 235.999 202.303C236.064 202.365 236.141 202.423 236.211 202.487C236.376 202.636 236.548 202.787 236.723 202.931C236.882 203.074 237.047 203.207 237.212 203.345C237.395 203.49 237.581 203.635 237.77 203.781C237.944 203.913 238.12 204.046 238.301 204.177C238.496 204.321 238.698 204.46 238.904 204.602C239.09 204.733 239.276 204.856 239.47 204.987C239.68 205.123 239.897 205.258 240.114 205.395C240.247 205.476 240.371 205.558 240.506 205.64C240.652 205.73 240.796 205.813 240.942 205.9C241.475 206.209 242.022 206.502 242.582 206.785C242.742 206.869 242.901 206.95 243.067 207.033C243.5 207.242 243.938 207.454 244.389 207.654C244.535 207.718 244.683 207.792 244.837 207.857C245.418 208.109 246.012 208.352 246.612 208.579C246.72 208.619 246.831 208.657 246.933 208.695C247.442 208.883 247.956 209.067 248.48 209.238C248.572 209.27 248.656 209.308 248.745 209.334C248.873 209.372 248.999 209.409 249.127 209.447C249.413 209.538 249.702 209.628 249.992 209.713C250.238 209.784 250.482 209.852 250.731 209.924C251.023 210.005 251.321 210.084 251.62 210.158C251.866 210.224 252.118 210.292 252.369 210.348C252.669 210.426 252.972 210.488 253.276 210.559C253.525 210.613 253.775 210.669 254.028 210.722C254.338 210.787 254.651 210.851 254.965 210.906C255.14 210.942 255.314 210.982 255.491 211.014C255.554 211.022 255.617 211.031 255.677 211.044C256.347 211.157 257.021 211.267 257.695 211.363C257.794 211.375 257.883 211.385 257.979 211.4C258.571 211.478 259.162 211.549 259.755 211.609C259.848 211.621 259.941 211.632 260.037 211.646C260.168 211.658 260.303 211.662 260.435 211.677C260.818 211.712 261.2 211.742 261.58 211.773C261.818 211.791 262.061 211.81 262.304 211.823C262.702 211.843 263.098 211.865 263.5 211.881C263.663 211.891 263.824 211.901 263.986 211.909C264.049 211.909 264.113 211.909 264.177 211.913C264.522 211.92 264.869 211.924 265.215 211.933C265.458 211.937 265.702 211.941 265.947 211.941C266.318 211.941 266.691 211.937 267.062 211.928C267.253 211.928 267.442 211.928 267.633 211.923C267.657 211.923 267.688 211.919 267.714 211.919C268.059 211.912 268.4 211.896 268.743 211.88C268.978 211.87 269.21 211.864 269.449 211.851C269.812 211.833 270.18 211.807 270.543 211.777C270.741 211.761 270.944 211.754 271.142 211.738C271.154 211.733 271.161 211.733 271.172 211.733C271.615 211.697 272.055 211.652 272.491 211.606C272.622 211.59 272.756 211.582 272.887 211.568C273.46 211.501 274.029 211.433 274.589 211.352C274.598 211.352 274.598 211.352 274.602 211.35C274.69 211.335 274.778 211.32 274.863 211.308C275.348 211.236 275.837 211.163 276.315 211.081C276.514 211.049 276.71 211.006 276.908 210.969C277.278 210.904 277.648 210.833 278.015 210.762C278.054 210.748 278.095 210.743 278.135 210.737C278.283 210.705 278.431 210.665 278.583 210.637C278.983 210.545 279.386 210.457 279.783 210.364C280.004 210.308 280.222 210.256 280.438 210.199C280.804 210.106 281.165 210.012 281.526 209.913C281.634 209.883 281.745 209.858 281.85 209.828C281.947 209.798 282.038 209.767 282.13 209.738C282.699 209.573 283.26 209.399 283.815 209.216C283.914 209.181 284.014 209.153 284.114 209.119C284.748 208.903 285.379 208.673 285.995 208.43C286.053 208.406 286.114 208.388 286.177 208.364C286.367 208.288 286.557 208.207 286.744 208.132C286.941 208.049 287.14 207.969 287.336 207.882C287.616 207.766 287.892 207.639 288.165 207.514C288.345 207.429 288.526 207.348 288.704 207.266C289.003 207.126 289.297 206.973 289.589 206.827C289.738 206.753 289.889 206.679 290.032 206.605C290.467 206.375 290.895 206.143 291.316 205.901C298.337 201.848 301.846 196.522 301.828 191.208L301.653 111.819C301.668 117.13 298.16 122.455 291.135 126.51C290.717 126.752 290.285 126.986 289.851 127.214C289.708 127.288 289.559 127.36 289.411 127.435C289.119 127.585 288.825 127.733 288.524 127.874C288.346 127.959 288.17 128.039 287.991 128.122C287.713 128.247 287.436 128.371 287.153 128.492C286.961 128.577 286.764 128.656 286.566 128.737C286.317 128.841 286.071 128.941 285.815 129.04C285.196 129.279 284.572 129.51 283.933 129.728C283.837 129.761 283.732 129.791 283.637 129.824C283.083 130.008 282.517 130.182 281.952 130.347C281.75 130.406 281.547 130.463 281.345 130.52C280.989 130.619 280.627 130.715 280.262 130.808C280.041 130.862 279.825 130.92 279.607 130.974C279.204 131.068 278.804 131.158 278.405 131.244C278.216 131.284 278.027 131.329 277.836 131.369C277.469 131.443 277.099 131.511 276.729 131.579C276.534 131.615 276.335 131.654 276.135 131.69C275.658 131.773 275.171 131.847 274.689 131.917C274.599 131.931 274.507 131.947 274.414 131.961C273.848 132.042 273.282 132.112 272.71 132.175C272.579 132.19 272.442 132.201 272.305 132.215C271.873 132.26 271.435 132.305 270.997 132.343C270.788 132.36 270.578 132.371 270.366 132.386C270.001 132.412 269.639 132.439 269.271 132.461C269.035 132.473 268.801 132.482 268.565 132.488C268.225 132.505 267.88 132.52 267.538 132.53C267.319 132.536 267.104 132.536 266.888 132.537C266.515 132.546 266.14 132.55 265.767 132.549C265.526 132.549 265.282 132.543 265.038 132.54C264.69 132.536 264.348 132.531 263.999 132.52C263.772 132.513 263.546 132.501 263.319 132.491C262.92 132.473 262.524 132.456 262.125 132.431C261.886 132.414 261.642 132.395 261.4 132.38C261.017 132.352 260.636 132.32 260.256 132.288C260.028 132.265 259.801 132.243 259.575 132.219C258.982 132.157 258.388 132.087 257.801 132.008C257.703 131.994 257.61 131.986 257.515 131.969C256.836 131.876 256.167 131.767 255.498 131.648C255.259 131.606 255.019 131.56 254.783 131.516C254.468 131.456 254.155 131.397 253.847 131.331C253.596 131.279 253.345 131.224 253.095 131.165C252.79 131.099 252.49 131.03 252.185 130.957C251.936 130.896 251.687 130.834 251.436 130.767C251.141 130.692 250.843 130.613 250.551 130.532C250.302 130.464 250.057 130.391 249.814 130.32C249.521 130.234 249.233 130.147 248.946 130.056C248.727 129.988 248.513 129.918 248.3 129.848C247.777 129.675 247.264 129.494 246.754 129.305C246.646 129.265 246.539 129.228 246.432 129.187C245.829 128.958 245.237 128.717 244.656 128.463C244.504 128.398 244.356 128.329 244.204 128.26C243.761 128.061 243.319 127.855 242.882 127.638C242.721 127.557 242.559 127.479 242.402 127.395C241.843 127.111 241.295 126.817 240.763 126.509C240.478 126.343 240.208 126.172 239.937 126.002C239.719 125.867 239.499 125.732 239.291 125.595C239.095 125.468 238.911 125.339 238.722 125.211C238.518 125.069 238.316 124.929 238.12 124.787C237.938 124.657 237.766 124.524 237.59 124.39C237.402 124.245 237.213 124.1 237.032 123.955C236.864 123.821 236.703 123.682 236.54 123.546C236.37 123.398 236.195 123.248 236.029 123.096C235.895 122.977 235.767 122.858 235.638 122.737C235.362 122.472 235.09 122.206 234.83 121.934C234.745 121.844 234.655 121.753 234.571 121.661C234.244 121.307 233.935 120.948 233.648 120.585C233.568 120.486 233.499 120.384 233.424 120.286C233.25 120.059 233.076 119.829 232.921 119.596C232.833 119.469 232.752 119.343 232.672 119.215C232.537 119.006 232.403 118.796 232.279 118.585C232.199 118.441 232.118 118.298 232.04 118.151C231.946 117.975 231.851 117.798 231.765 117.618C231.692 117.468 231.624 117.319 231.558 117.168C231.474 116.989 231.399 116.808 231.327 116.629C231.268 116.475 231.212 116.322 231.154 116.169C231.094 115.999 231.038 115.824 230.985 115.654C230.937 115.496 230.889 115.34 230.844 115.182C230.799 115.009 230.758 114.837 230.718 114.664C230.683 114.506 230.652 114.35 230.621 114.192C230.587 114.013 230.561 113.837 230.536 113.657C230.516 113.501 230.494 113.347 230.478 113.192C230.461 113.013 230.448 112.832 230.441 112.652C230.427 112.444 230.411 112.233 230.411 112.027L230.589 191.416C230.589 191.52 230.591 191.626 230.597 191.729C230.599 191.83 230.616 191.934 230.618 192.039Z" fill="#8C8CEA"/>
<path d="M291.136 126.508C305.091 118.449 305.166 105.386 291.303 97.3259C277.441 89.2709 254.886 89.2709 240.929 97.3279C226.972 105.386 226.899 118.452 240.762 126.507C254.624 134.564 277.179 134.564 291.136 126.508Z" fill="#FAFBFB"/>
<path d="M265.915 129.605C274.918 129.605 283.355 127.6 289.663 123.957C295.489 120.593 298.703 116.297 298.71 111.862C298.715 107.463 295.559 103.206 289.823 99.874C283.558 96.234 275.154 94.231 266.154 94.231C257.145 94.231 248.711 96.238 242.403 99.879C236.576 103.242 233.363 107.536 233.356 111.977C233.349 116.372 236.506 120.628 242.239 123.96C248.502 127.6 256.91 129.605 265.915 129.605Z" fill="#37377C"/>
<path d="M261.072 129.626C269.176 129.704 268.722 129.726 268.734 129.721L263.372 57.5949C263.364 57.4479 263.33 57.3059 263.274 57.1699L257.382 42.8559C256.893 41.6749 255.192 41.7839 254.858 43.0189L250.828 57.9639C250.787 58.1069 250.774 58.2509 250.786 58.3959L255.24 128.417C257.886 129.092 258.911 129.605 261.072 129.626Z" fill="#FBB82C"/>
<path d="M250.828 57.964L257.49 58.816L263.371 57.596L256.019 38.064L250.828 57.964Z" fill="white"/>
<path d="M255.87 47.344H253.517L256.019 38.661L259.286 47.344H255.87Z" fill="#26253A"/>
<path d="M268.734 129.721C271.799 129.721 275.419 128.672 278.303 128.259L289.075 62.5739C289.101 62.4289 289.101 62.2829 289.079 62.1379L286.659 46.8479C286.455 45.5869 284.774 45.2979 284.165 46.4219L276.786 60.0299C276.715 60.1579 276.669 60.2969 276.645 60.4399L264.786 129.593C266.084 129.674 267.404 129.721 268.734 129.721Z" fill="#FA7483"/>
<path d="M276.659 59.7889L283.275 62.1379L289.553 62.1969L286.376 40.6129L276.659 59.7889Z" fill="white"/>
<path d="M284.3 49.4509L281.895 48.9289L286.376 40.6129L287.789 50.2079L284.3 49.4509Z" fill="#26253A"/>
<path d="M226.046 320.167L306.63 366.692L415.268 303.559V300.391L334.685 257.034L226.046 316.998V320.167Z" fill="#FB1B34"/>
<path d="M306.63 363.524L415.268 300.391L334.685 253.865L226.046 316.998L306.63 363.524Z" fill="#FA7483"/>
<path d="M306.94 353.53L407.938 294.837L333.02 251.584L232.022 310.279L306.94 353.53Z" fill="#F2F1F1"/>
<path d="M306.979 359.67L307.008 353.753L232.09 310.5L232.063 316.414L306.979 359.67Z" fill="#D3E8EF"/>
<path d="M407.909 300.753L407.938 294.837L306.94 353.53L306.91 359.447L407.909 300.753Z" fill="#BAD3DF"/>
<path d="M226.046 307.703L306.63 354.228L415.268 291.094V287.927L334.685 244.57L226.046 304.534V307.703Z" fill="#FB1B34"/>
<path d="M306.63 351.059L415.268 287.927L334.685 241.399L226.046 304.534L306.63 351.059Z" fill="#FA7483"/>
<path d="M374.927 289.129L385.667 283.099L358.044 267.2L347.305 273.23L374.927 289.129Z" fill="#8C8CEA"/>
<path d="M365.865 302.489L376.606 296.458L348.982 280.561L338.243 286.59L365.865 302.489Z" fill="#D3E8EF"/>
<path d="M325.382 316.722L261.354 353.69L175.033 303.525V301.007L239.062 266.558L325.382 314.204V316.722Z" fill="#B89030"/>
<path d="M261.354 351.171L175.033 301.007L239.062 264.038L325.382 314.204L261.354 351.171Z" fill="#FBB82C"/>
<path d="M261.107 328.481L180.858 281.844L240.382 247.475L320.632 294.112L261.107 328.481Z" fill="#BAD3DF"/>
<path d="M180.881 301.296L180.858 281.844L261.107 328.481L261.129 347.933L180.881 301.296Z" fill="#BAD3DF"/>
<path d="M261.129 347.933L261.107 328.481L320.632 294.112L320.656 313.565L261.129 347.933Z" fill="#BAD3DF"/>
<path d="M325.382 292.065L261.354 329.029L175.033 278.869V276.35L239.062 241.903L325.382 289.545V292.065Z" fill="#B89030"/>
<path d="M261.354 326.515L175.033 276.35L239.062 239.382L325.382 289.545L261.354 326.515Z" fill="#FBD24F"/>
<path d="M175.033 276.35L174.731 302.994L260.667 353.69L261.354 326.515L175.033 276.35Z" fill="#FBB82C"/>
<path d="M260.015 326.812V354.184L262.015 352.939V326.091L260.015 326.812Z" fill="#B89030"/>
<path d="M199.015 290.287L198.838 317.215L205.015 320.797V293.622L199.015 290.287Z" fill="#FA7483"/>
<path d="M243.26 365.291C243.26 369.796 235.043 373.448 224.906 373.448C214.768 373.448 206.551 369.796 206.551 365.291C206.551 360.788 214.769 357.136 224.906 357.136C235.043 357.136 243.26 360.788 243.26 365.291Z" fill="#CAE4F1"/>
<path d="M242.16 286.236L261.825 274.809L247.237 266.388L227.575 277.815L242.16 286.236Z" fill="#E8E9F6"/>
<path d="M242.155 288.2L261.818 276.774L261.825 274.809L242.16 286.236L242.155 288.2Z" fill="#D3E8EF"/>
<path d="M242.155 288.2L242.16 286.236L227.575 277.815L227.57 279.782L242.155 288.2Z" fill="#BAD3DF"/>
<path d="M246.198 269.199C246.172 269.186 246.141 269.195 246.128 269.219C246.112 269.243 246.124 269.274 246.147 269.29L257.244 275.696C257.254 275.702 257.263 275.705 257.27 275.705C257.288 275.705 257.305 275.694 257.315 275.68C257.329 275.654 257.322 275.621 257.293 275.609L246.198 269.199Z" fill="white"/>
<path d="M244.912 269.946C244.889 269.932 244.858 269.939 244.843 269.966C244.83 269.991 244.838 270.023 244.862 270.037L255.961 276.445C255.97 276.448 255.977 276.449 255.987 276.449C256.003 276.449 256.02 276.441 256.029 276.424C256.045 276.4 256.035 276.369 256.011 276.356L244.912 269.946Z" fill="white"/>
<path d="M243.63 270.694C243.605 270.678 243.575 270.686 243.561 270.711C243.543 270.735 243.554 270.767 243.58 270.781L254.677 277.187C254.685 277.193 254.693 277.198 254.703 277.198C254.721 277.198 254.736 277.187 254.746 277.169C254.762 277.147 254.753 277.115 254.729 277.099L243.63 270.694Z" fill="white"/>
<path d="M242.347 271.439C242.321 271.423 242.291 271.432 242.278 271.459C242.264 271.481 242.27 271.514 242.296 271.529L253.395 277.936C253.402 277.94 253.411 277.942 253.419 277.942C253.437 277.942 253.455 277.929 253.462 277.917C253.479 277.894 253.469 277.859 253.442 277.847L242.347 271.439Z" fill="white"/>
<path d="M241.062 272.183C241.039 272.17 241.009 272.178 240.993 272.201C240.98 272.225 240.989 272.258 241.014 272.272L252.11 278.678C252.121 278.683 252.128 278.685 252.136 278.685C252.155 278.685 252.172 278.678 252.18 278.661C252.195 278.637 252.186 278.604 252.161 278.593L241.062 272.183Z" fill="white"/>
<path d="M239.78 272.931C239.755 272.917 239.724 272.925 239.711 272.948C239.697 272.973 239.705 273.006 239.729 273.019L250.827 279.427C250.836 279.431 250.844 279.432 250.852 279.432C250.87 279.432 250.888 279.422 250.897 279.407C250.912 279.384 250.904 279.352 250.879 279.338L239.78 272.931Z" fill="white"/>
<path d="M238.496 273.677C238.472 273.661 238.44 273.67 238.427 273.695C238.413 273.719 238.42 273.751 238.445 273.763L249.544 280.17C249.551 280.177 249.561 280.18 249.568 280.18C249.586 280.18 249.604 280.168 249.614 280.155C249.628 280.129 249.62 280.098 249.595 280.083L238.496 273.677Z" fill="white"/>
<path d="M237.211 274.421C237.188 274.406 237.157 274.417 237.142 274.44C237.13 274.465 237.138 274.498 237.161 274.51L248.259 280.918C248.267 280.922 248.277 280.923 248.285 280.923C248.303 280.923 248.319 280.913 248.329 280.899C248.343 280.876 248.336 280.843 248.31 280.83L237.211 274.421Z" fill="white"/>
<path d="M235.93 275.167C235.906 275.152 235.874 275.162 235.859 275.186C235.846 275.211 235.854 275.242 235.879 275.256L246.978 281.663C246.988 281.667 246.995 281.669 247.002 281.669C247.02 281.669 247.036 281.661 247.048 281.645C247.061 281.62 247.052 281.588 247.028 281.576L235.93 275.167Z" fill="white"/>
<path d="M234.645 275.912C234.621 275.899 234.59 275.907 234.576 275.932C234.564 275.958 234.569 275.988 234.597 276.001L245.694 282.408C245.702 282.415 245.712 282.416 245.72 282.416C245.737 282.416 245.754 282.407 245.761 282.39C245.778 282.366 245.769 282.334 245.746 282.32L234.645 275.912Z" fill="white"/>
<path d="M233.363 276.66C233.338 276.644 233.307 276.652 233.292 276.679C233.281 276.702 233.287 276.735 233.313 276.748L244.409 283.156C244.418 283.159 244.427 283.16 244.436 283.16C244.453 283.16 244.47 283.152 244.479 283.137C244.494 283.112 244.484 283.081 244.461 283.065L233.363 276.66Z" fill="white"/>
<path d="M232.078 277.405C232.054 277.389 232.022 277.399 232.008 277.422C231.995 277.448 232.003 277.479 232.029 277.495L243.127 283.899C243.137 283.903 243.145 283.907 243.152 283.907C243.168 283.907 243.186 283.898 243.196 283.882C243.21 283.857 243.203 283.825 243.179 283.812L232.078 277.405Z" fill="white"/>
<path d="M217.692 360.581L218.177 360.906C218.177 360.906 219.309 361.066 220.6 360.743C221.895 360.421 223.35 360.502 223.107 361.713C222.863 362.926 220.763 363.896 219.875 364.301C218.987 364.703 217.206 365.271 216.966 365.594C216.721 365.917 216.318 366.401 214.945 366.078C213.571 365.754 213.509 365.187 213.509 365.187V360.176L217.692 360.581Z" fill="#26253A"/>
<path d="M229.2 362.659L229.684 362.981C229.684 362.981 230.815 363.141 232.108 362.819C233.401 362.499 234.857 362.577 234.614 363.79C234.37 365.003 232.271 365.975 231.381 366.377C230.492 366.781 228.714 367.348 228.474 367.672C228.229 367.993 227.825 368.48 226.452 368.156C225.077 367.832 225.014 367.266 225.014 367.266V362.254L229.2 362.659Z" fill="#26253A"/>
<path d="M233.911 315.905L233.589 309.128C233.595 307.347 233.596 306.227 233.596 306.227L233.451 306.241L233.375 304.645L222.554 300.819C222.554 300.819 215.247 296.936 215.03 301.757C214.629 303.207 213.112 306.333 213.661 311.125C214.209 315.92 214.463 334.873 214.463 334.873C214.463 334.873 213.111 338.539 213.004 343.475C212.894 348.412 212.989 360.756 212.989 360.756C214.075 362.274 214.112 362.843 215.739 362.843C217.366 362.843 218.333 362.078 218.333 362.078C218.766 358.535 220.167 347.527 221.251 342.843C221.888 340.1 222.525 332.772 222.946 327.174L224.021 337.254C224.021 337.254 223.471 341.429 223.429 343.839C223.39 346.25 224.614 364.267 224.614 364.267C224.614 364.267 225.265 365.375 227.33 365.246C228.269 365.189 228.837 364.764 229.188 364.316C229.389 364.288 229.518 364.266 229.518 364.266C229.518 364.266 229.546 364.027 229.601 363.598C229.684 363.379 229.717 363.22 229.717 363.22C229.717 363.22 229.734 362.885 229.764 362.29C230.528 356.199 233.564 340.277 233.91 334.872C234.011 333.306 233.911 315.905 233.911 315.905Z" fill="#37377C"/>
<path d="M245.866 287.927C245.866 287.927 247.28 287.66 248.064 287.342C248.85 287.024 250.177 285.802 250.325 285.322C250.472 284.845 250.668 282.881 250.325 282.455C249.98 282.029 248.709 283.518 248.189 283.996C247.672 284.474 247.672 284.474 247.672 284.474C247.672 284.474 248.064 283.2 247.968 282.881C247.869 282.562 247.279 282.509 246.594 283.305C245.905 284.102 244.09 285.856 244.09 285.856L245.866 287.927Z" fill="#FA7483"/>
<path d="M232.884 257.778C232.884 257.778 233.394 262.622 233.042 264.569C232.887 265.414 232.492 266.287 231.407 266.72C230.323 267.155 227.688 266.72 227.688 266.72L227.981 272.818C227.981 272.818 224.832 273.467 222.336 271.624V269.129V261.767C222.336 261.767 226.664 254.492 232.884 257.778Z" fill="#FA7483"/>
<path d="M227.982 272.818C227.982 272.818 231.455 274.12 233.518 276.073C235.578 278.028 235.36 281.718 235.578 284.649C235.797 287.578 236.23 289.533 236.23 289.533C236.23 289.533 244.723 284.973 245.375 284.757C245.375 284.757 247.995 285.018 247.125 288.49C247.125 288.49 240.898 293.222 238.508 294.849C236.122 296.477 233.951 297.888 232.432 297.888L233.597 306.227C233.597 306.227 227.662 307.736 224.188 307.412C220.713 307.086 216.66 304.685 215.031 301.758C215.031 301.758 215.095 288.703 214.225 285.665C213.358 282.625 213.547 274.229 214.415 272.275C215.283 270.323 218.756 268.477 222.338 270.214L227.982 272.818Z" fill="#8C8CEA"/>
<path d="M232.884 257.778C232.884 257.778 235.576 256.132 232.145 253.507C226.544 249.223 224.983 253.732 222.337 254.913C220.441 255.762 218.973 256.934 219.189 260.625C219.407 264.314 222.337 267.245 222.337 267.245C222.337 267.245 223.529 267.571 226.027 264.966C228.522 262.361 229.117 258.983 229.717 257.912C230.316 256.838 232.884 257.778 232.884 257.778Z" fill="#26253A"/>
<path d="M290.412 248.976L304.589 252.757L311.504 246.613L309.968 243.155L311.504 241.365L304.589 239.955L290.412 248.976Z" fill="#4F4FB7"/>
<path d="M304.589 227.152L290.412 236.241V248.976L304.589 239.955V227.152Z" fill="#4F4FB7"/>
<path d="M303.249 229.22L291.755 236.588V246.909L303.249 239.597V229.22Z" fill="#BAD3DF"/>
<path d="M328.771 250.151C328.771 250.151 304.102 252.356 299.816 251.046C299.816 251.046 296.003 251.046 293.939 254.246C291.876 257.446 290.923 263.706 290.923 265.743C290.923 266.023 290.909 266.431 290.881 266.924L299.827 262.16C299.917 260.364 300.449 260.358 300.449 260.358C300.449 260.358 316.148 272.773 322.975 269.77C327.041 267.982 327.629 267.362 328.007 265.806C328.978 261.821 328.771 250.151 328.771 250.151Z" fill="#37377C"/>
<path d="M309.968 242.753L308.564 242.061C308.564 242.061 306.512 241.466 305.81 241.665C305.109 241.863 303.381 242.26 304.135 242.754C304.891 243.249 305.217 242.754 305.81 242.754C306.404 242.754 306.216 243.844 306.958 244.089C307.699 244.337 308.343 244.733 308.996 244.089C309.648 243.447 309.968 242.753 309.968 242.753Z" fill="#FA7483"/>
<path d="M298.256 250.175C298.25 250.175 298.246 250.176 298.242 250.176C297.531 250.163 297.084 249.379 296.807 249.051C296.669 249 296.528 248.975 296.389 248.976C296.215 249.1 296.079 249.353 296.114 249.49C296.174 249.714 296.072 250.071 295.943 250.071C295.813 250.071 295.363 249.991 295.363 249.991C295.027 249.891 294.572 249.742 294.299 249.568C293.823 249.272 293.446 249.711 293.446 249.711C293.578 251.509 294.605 251.748 294.605 251.748H294.607C294.836 251.867 295.135 251.987 295.531 252.103C297.412 252.648 299.419 251.746 299.419 251.746V250.539C299.419 250.537 298.788 250.419 298.256 250.175Z" fill="#FA7483"/>
<path d="M327.709 232.273C326.174 230.099 322.96 229.971 322.261 229.971C321.565 229.971 319.045 230.987 317.931 231.505C317.931 231.505 314.3 232.905 312.622 235.591C311.437 237.494 310.602 240.344 310.216 241.344H308.015V244.946L308.484 245.344L306.76 249.172C306.76 249.172 300.036 249.299 298.499 249.172L297.946 253.779C297.946 253.779 301.864 254.547 304.934 255.058C308.007 255.572 311.224 254.674 311.641 253.395C312.06 252.115 312.76 251.857 312.76 251.857C312.76 251.857 313.179 255.828 311.784 258.257C310.384 260.691 310.385 262.355 310.385 262.355C310.385 262.355 311.924 266.962 317.092 267.861C322.26 268.756 328.964 264.406 328.964 264.406C328.964 264.406 329.384 252.884 329.524 248.531C329.665 244.18 329.247 234.45 327.709 232.273Z" fill="#8C8CEA"/>
<path d="M313.075 219.483C313.075 219.483 312.541 222.196 312.84 223.851C312.97 224.571 313.82 226.164 314.745 226.534C315.665 226.902 317.439 226.164 317.439 226.164L317.243 232.271C317.243 232.271 319.92 232.824 322.043 231.254V229.134V222.874C322.043 222.874 318.364 216.691 313.075 219.483Z" fill="#FA7483"/>
<path d="M313.075 219.483C313.075 219.483 313.346 215.071 315.756 214.057C321.768 211.53 324.22 213.201 327.348 215.344C330.563 217.547 330.033 220.946 330.277 224.511C330.518 228.075 333.557 227.364 334.814 229.22C336.538 231.766 336.063 237.609 332.059 238.038C328.054 238.47 320.829 233.523 320.618 227.61C320.495 224.097 319.118 221.268 318.019 219.55C317.038 218.017 313.075 219.483 313.075 219.483Z" fill="#FBB82C"/>
<path d="M152.705 323.816L88.6772 360.78L2.3562 310.616V308.099L66.3842 273.651L152.705 321.295V323.816Z" fill="#B89030"/>
<path d="M88.6772 358.262L2.3562 308.099L66.3842 271.131L152.705 321.295L88.6772 358.262Z" fill="#FBB82C"/>
<path d="M88.4292 335.571L8.18018 288.935L67.7052 254.567L147.955 301.203L88.4292 335.571Z" fill="#BAD3DF"/>
<path d="M8.20317 308.388L8.18018 288.935L88.4292 335.571L88.4502 355.025L8.20317 308.388Z" fill="#BAD3DF"/>
<path d="M88.4502 355.025L88.4292 335.571L147.955 301.203L147.979 320.657L88.4502 355.025Z" fill="#BAD3DF"/>
<path d="M152.705 299.154L88.6772 336.123L2.3562 285.961V283.442L66.3842 248.993L152.705 296.637V299.154Z" fill="#B89030"/>
<path d="M88.6772 333.606L2.3562 283.442L66.3842 246.474L152.705 296.637L88.6772 333.606Z" fill="#FBD24F"/>
<path d="M2.3562 283.442L2.0542 310.086L87.9902 360.78L88.6772 333.606L2.3562 283.442Z" fill="#FBB82C"/>
<path d="M88.0151 333.903V361.275L90.0151 360.029V333.182L88.0151 333.903Z" fill="#B89030"/>
<path d="M17.7292 281.103L70.1702 311.376L140.869 270.293V268.231L88.4272 240.017L17.7292 279.038V281.103Z" fill="#37377C"/>
<path d="M70.1702 309.316L140.869 268.231L88.4272 237.954L17.7292 279.038L70.1702 309.316Z" fill="#4F4FB7"/>
<path d="M70.3704 290.731L136.097 252.534L87.3454 224.386L21.6184 262.582L70.3704 290.731Z" fill="#F2F1F1"/>
<path d="M136.08 268.467L136.097 252.534L70.3703 290.731L70.3542 306.664L136.08 268.467Z" fill="#BAD3DF"/>
<path d="M70.3543 306.664L70.3703 290.731L21.6183 262.582L21.6003 278.515L70.3543 306.664Z" fill="#D3E8EF"/>
<path d="M17.7292 260.905L70.1702 291.184L140.869 250.096V248.035L88.4272 219.822L17.7292 258.845V260.905Z" fill="#37377C"/>
<path d="M70.1702 289.119L140.869 248.035L88.4272 217.758L17.7292 258.845L70.1702 289.119Z" fill="#8C8CEA"/>
<path d="M19.4482 280.03L21.6002 278.515L21.6182 263.151L17.7292 258.845V279.038L19.4482 280.03Z" fill="#37377C"/>
<path d="M85.8291 305.045C85.8291 309.55 94.0471 313.201 104.183 313.201C114.321 313.201 122.538 309.55 122.538 305.045C122.538 300.541 114.321 296.889 104.183 296.889C94.0471 296.889 85.8291 300.541 85.8291 305.045Z" fill="#FBB82C"/>
<path d="M92.4133 304.199C92.2813 305.605 91.9213 305.262 92.6623 306.42C92.9763 306.91 95.5413 309.666 95.3853 310.858L94.7373 311.13C93.2123 311.37 92.8323 311.366 91.8553 310.634C90.6883 309.764 89.6873 309.016 88.9573 308.47C88.1423 307.863 87.8433 306.723 88.2513 305.748C88.5243 305.085 89.0993 303.893 89.0993 303.893L92.4133 304.199Z" fill="#26253A"/>
<path d="M106.039 293.622C106.384 294.992 105.93 294.788 107.017 295.634C107.474 295.991 110.808 297.738 111.055 298.914L110.537 299.385C109.175 300.119 108.818 300.241 107.653 299.878C106.263 299.442 105.07 299.068 104.201 298.798C103.229 298.495 102.568 297.52 102.628 296.466C102.668 295.75 102.813 294.432 102.813 294.432L106.039 293.622Z" fill="#26253A"/>
<path d="M83.9122 254.079C83.9122 254.079 77.2542 257.274 71.7532 260.601C72.2942 260.976 77.3092 267.448 77.9732 267.806C85.6052 271.933 92.0572 272.795 98.8502 273.158C99.1422 279.594 101.382 290.742 101.745 295.326C104.352 296.293 104.737 296.081 107.076 295.096C107.076 295.096 105.561 284.105 106.105 274.604C106.591 266.049 98.7962 264.056 86.6012 260.602C85.2592 260.224 84.3712 257.93 83.9122 254.079Z" fill="#37377C"/>
<path d="M82.7162 262.572C95.4192 271.993 102.787 276.786 99.0742 285.544C95.3582 294.303 92.8352 305.418 92.8352 305.418C90.4462 306.466 88.8922 306.346 87.7372 303.834C88.9452 299.395 90.7202 288.07 92.6172 281.917C86.3442 279.279 76.3682 276.911 70.6432 272.165C66.8322 269.193 65.6342 266.424 65.9112 263.694C66.0612 262.201 66.8082 258.64 66.8082 258.64L80.2842 251.837L82.7162 262.572Z" fill="#4F4FB7"/>
<path d="M93.0911 248.959C92.1811 248.354 83.6871 251.344 83.6871 251.344L83.4741 238.952L85.4231 238.173C85.4231 238.173 84.3401 246.709 85.5951 247.531C86.8551 248.353 93.3631 245.558 94.5661 245.841C95.7691 246.125 95.8351 248.963 93.0911 248.959Z" fill="#FA7483"/>
<path d="M81.7642 239.091L80.8672 230.553C83.7112 231.109 85.3002 232.654 85.5702 235.587C85.6112 236.015 85.6122 237.691 85.5882 239.279C85.0442 240.406 82.6762 241.037 81.7002 240.902C81.7342 239.8 81.7642 239.091 81.7642 239.091Z" fill="#FBD24F"/>
<path d="M66.1093 253.68C66.1093 253.659 66.1063 253.635 66.1063 253.614C66.1063 246.983 66.1063 239.039 66.1063 239.039C66.1063 236.084 67.4043 234.207 74.8833 231.007C82.4073 227.786 84.1613 234.066 84.1613 236.369C84.1613 238.145 84.2753 245.339 84.3273 248.545C84.3273 248.545 84.3273 248.546 84.3273 248.548C84.3423 249.5 84.3513 250.104 84.3513 250.104C84.3513 250.886 84.3603 251.511 84.3603 252.018C84.3783 254.55 84.3663 255.607 84.3623 255.896C84.3603 255.955 84.4033 257.881 84.3703 257.931C82.5473 260.625 73.8373 263.698 67.9163 259.596C67.1763 259.01 66.6633 258.516 66.3353 258.171C66.0393 257.857 65.8873 257.445 65.9123 257.026L66.1093 253.68Z" fill="#FBD24F"/>
<path d="M79.2361 219.872C78.6791 219.635 78.0681 219.503 77.4211 219.503C74.9451 219.503 73.4911 221.009 73.4911 223.381C73.4911 224.072 73.6571 230.273 73.4001 231.73C73.3781 231.863 73.0231 232.262 73.0261 232.336C73.0351 232.918 73.9371 233.674 74.6541 234.05C75.6511 234.577 77.2511 234.908 77.9721 234.357C78.3721 234.05 78.3981 233.296 78.3921 233.268C78.3481 232.816 78.2671 230.468 78.2721 228.84C78.3841 228.851 78.5171 228.862 78.6301 228.862C80.8931 228.862 82.7411 226.837 82.7411 224.342C82.7421 222.063 81.2231 220.185 79.2361 219.872Z" fill="#FA7483"/>
<path d="M71.2322 216.716C71.5662 215.765 73.1112 215.045 74.9702 215.045C77.0712 215.045 78.7752 215.963 78.7752 217.096C78.7752 217.981 77.7292 218.734 76.2672 219.019L76.3922 219.358C76.3922 219.358 76.2002 223.069 75.2012 225.638C74.2032 228.207 68.5482 228.448 67.1262 226.021C72.2822 226.822 68.8922 219.143 71.2322 216.716Z" fill="#26253A"/>
<path d="M80.2023 220.961C79.6373 221.194 78.3973 221.417 77.1633 222.978C76.9523 223.246 75.0593 226.216 74.4983 225.951C74.4983 225.951 74.7413 224.553 74.4983 223.977C74.2533 223.403 73.6023 223.603 73.5213 223.673C73.4393 223.742 73.4633 226.309 73.4633 226.309C72.3583 225.005 71.6543 223.494 72.3383 221.611C72.6323 220.8 73.1833 217.541 76.0403 216.755C78.7663 216.006 81.0733 216.694 82.1713 218.293C83.2683 219.896 83.3603 221.755 83.2983 222.921C83.2383 224.09 82.5543 224.86 82.5543 224.86C82.3773 224.509 82.7523 223.407 82.3643 222.381C82.0353 221.506 81.0033 220.63 80.2023 220.961Z" fill="#26253A"/>
<path d="M65.0022 242.344C65.0022 242.344 64.5402 247.709 64.5402 251.051C64.5402 254.391 63.6012 256.683 65.0022 258.012C66.4042 259.344 68.9322 258.537 72.7072 258.063C75.8302 257.674 78.4062 256.038 78.7912 256.038C79.1772 256.038 81.8922 257.337 81.8922 257.337C81.8922 257.337 83.0292 257.023 82.8742 256.363C82.7202 255.704 79.2342 254.076 79.2342 254.076C79.2342 254.076 77.9932 254.161 77.2382 254.504C76.4822 254.85 67.6452 254.393 67.6452 254.393L69.8552 242.344H65.0022Z" fill="#FA7483"/>
<path d="M63.8662 245.3C66.5792 246.939 69.5842 246.789 70.2682 246.361C71.5292 241.85 72.1762 240.883 72.2302 239.128C72.2882 237.375 71.4672 234.836 69.8122 234.682C63.8662 234.119 63.8662 243.177 63.8662 245.3Z" fill="#FBD24F"/>
<path d="M86.1842 258.072L75.2202 251.524L90.1992 243.02L101.264 249.312L86.1842 258.072Z" fill="#BAD3DF"/>
<path d="M77.9243 251.524L89.4163 244.76L97.9243 249.744L85.8643 256.366L77.9243 251.524Z" fill="#4F4FB7"/>
<path d="M86.0151 258L102.015 249.312V233.747L86.0151 243.312V258Z" fill="#37377C"/>
<path d="M95.9032 244.76C95.9032 245.149 95.7552 245.467 95.5722 245.467C95.3882 245.467 95.2402 245.149 95.2402 244.76C95.2402 244.367 95.3872 244.048 95.5722 244.048C95.7552 244.048 95.9032 244.366 95.9032 244.76Z" fill="white"/>
</svg>
