<svg width="24" height="24" viewBox="0 0 24 24" fill="none" xmlns="http://www.w3.org/2000/svg">
<path d="M22 12.12L19.4 15C18.4627 16.0312 17.3203 16.8551 16.0459 17.4189C14.7716 17.9827 13.3935 18.2739 12 18.2739C10.6065 18.2739 9.2284 17.9827 7.95406 17.4189C6.67971 16.8551 5.53727 16.0312 4.6 15L2 12.12L4.32 9.33999C5.2585 8.21458 6.43287 7.30918 7.76001 6.68786C9.08715 6.06655 10.5346 5.74449 12 5.74449C13.4654 5.74449 14.9128 6.06655 16.24 6.68786C17.5671 7.30918 18.7415 8.21458 19.68 9.33999L22 12.12Z" stroke="black" stroke-width="1.5" stroke-linecap="round" stroke-linejoin="round"/>
<path d="M12.09 14.26C13.5259 14.26 14.69 13.1407 14.69 11.76C14.69 10.3793 13.5259 9.25999 12.09 9.25999C10.6541 9.25999 9.48999 10.3793 9.48999 11.76C9.48999 13.1407 10.6541 14.26 12.09 14.26Z" stroke="black" stroke-width="1.5" stroke-linecap="round" stroke-linejoin="bevel"/>
</svg>
